<?xml version="1.0" encoding="utf-8"?>
<!-- Generator: Adobe Illustrator 17.1.0, SVG Export Plug-In . SVG Version: 6.00 Build 0)  -->
<!DOCTYPE svg PUBLIC "-//W3C//DTD SVG 1.1//EN" "http://www.w3.org/Graphics/SVG/1.1/DTD/svg11.dtd">
<svg version="1.1" id="Calque_1" xmlns="http://www.w3.org/2000/svg" xmlns:xlink="http://www.w3.org/1999/xlink" x="0px" y="0px"
	 viewBox="0 195 600 210" enable-background="new 0 195 600 210" xml:space="preserve">
<path fill="#F4F4ED" d="M134.4,335.9c0,9-1.3,17.4-4.1,25.1c-2.6,7.7-6.8,14.2-12,19.9c-5.2,5.7-12,9.9-19.9,13.1
	c-8.1,3.2-17.2,4.7-27.8,4.7c-11.4,0-21.2-1.7-29.6-5.2c-8.4-3.4-15.4-8.2-21-14.1c-5.6-6-9.8-12.9-12.6-21
	c-2.6-7.9-4.1-16.3-4.1-25.3v-18.8c0-9,1.1-17.6,3.4-25.5c2.2-8.1,5.8-15,10.7-21s10.9-10.7,18.4-14.1c7.5-3.4,16.5-5.2,27.2-5.2
	c7.9,0,14.8,1.5,21,4.7c6,3.2,11.1,6.9,14.8,11.4l2.1-0.4v-52.7c0-3.4,1.5-6.6,4.5-9.4s6.9-4.1,11.6-4.1c5.4,0,9.6,1.3,12.8,4.1
	c3,2.8,4.7,6,4.7,9.4L134.4,335.9L134.4,335.9z M290.4,334.8c0,8.6-1.3,16.9-3.9,24.6s-6.6,14.4-12,20.2s-12.2,10.3-20.4,13.7
	c-8.2,3.4-18,5.1-29.1,5.1c-11.4,0-21.2-1.7-29.4-5.1c-8.2-3.4-15-7.9-20.2-13.7c-5.2-5.8-9.2-12.6-11.8-20.2
	c-2.6-7.7-3.9-15.9-3.9-24.6v-19.9c0-9,1.3-17.6,3.9-25.5c2.6-8.1,6.6-15,11.8-21s12-10.9,20.2-14.2c8.3-3.4,18-5.2,29.4-5.2
	c11.1,0,20.8,1.7,29.1,5.2c8.2,3.4,15,8.2,20.4,14.2s9.4,13.1,12,21c2.6,8.1,3.9,16.5,3.9,25.5V334.8z M441.2,334.8
	c0,8.6-1.3,16.9-3.9,24.6s-6.6,14.4-12,20.2s-12.2,10.3-20.4,13.7c-8.2,3.4-18,5.1-29.1,5.1c-11.4,0-21.2-1.7-29.4-5.1
	c-8.2-3.4-15-7.9-20.2-13.7c-5.3-5.8-9.2-12.6-11.8-20.2c-2.6-7.7-3.9-15.9-3.9-24.6v-19.9c0-9,1.3-17.6,3.9-25.5
	c2.6-8.1,6.6-15,11.8-21c5.2-6,12-10.9,20.2-14.2c8.2-3.4,18-5.2,29.4-5.2c11.1,0,20.8,1.7,29.1,5.2c8.2,3.4,15,8.2,20.4,14.2
	s9.4,13.1,12,21c2.6,7.9,3.9,16.5,3.9,25.5V334.8z M597.2,333.1c0,9-1.3,17.6-3.9,25.5c-2.6,8.1-6.6,15-12,21s-12,10.9-20.1,14.4
	s-17.4,5.2-28.1,5.2c-11.1,0-21-1.5-29.3-4.3c-8.4-2.8-15.4-6.9-21-12.2c-5.6-5.3-9.8-11.2-12.6-18.4c-2.8-6.9-4.1-14.6-4.1-22.9
	V213.5c0-3.4,1.5-6.6,4.7-9.4c3.2-2.8,7.3-4.1,12.6-4.1c5.1,0,9,1.3,12,4.1s4.5,6,4.5,9.4v49.7l1.7,0.9c3.9-4.9,8.6-8.4,14.4-11.1
	c5.8-2.6,12.4-3.9,19.7-3.9c10.5,0,19.7,1.7,27.4,5.1s14.1,8.1,19.1,14.1s8.8,13.1,11.2,21.4s3.8,17.3,3.8,27L597.2,333.1
	L597.2,333.1z"/>
</svg>
